<svg xmlns="http://www.w3.org/2000/svg" viewBox="0 0 34 35.5"><defs><style>.cls-1{fill:#fff;stroke:#1d1d1b;stroke-miterlimit:10;opacity:0.8;}.cls-2{fill:#62c6f2;}</style></defs><title>rainyAsset 7</title><g id="Layer_2" data-name="Layer 2"><g id="Layer_1-2" data-name="Layer 1"><path class="cls-1" d="M25.5,7.5a8.85,8.85,0,0,0-.89,0A9.75,9.75,0,0,0,5.5,10.25a9.53,9.53,0,0,0,.1,1.32A6,6,0,0,0,6.5,23.5h19a8,8,0,0,0,0-16Z"/><rect class="cls-2" x="1.5" y="27.89" width="6.88" height="1.75" transform="translate(-21.24 15.86) rotate(-54)"/><rect class="cls-2" x="12.51" y="28.34" width="8" height="1.75" transform="translate(-16.83 25.4) rotate(-54)"/><rect class="cls-2" x="17.6" y="29.39" width="10.5" height="1.75" transform="translate(-15.07 30.97) rotate(-54)"/><rect class="cls-2" x="5.52" y="30.77" width="8.25" height="1.75" transform="translate(-21.62 20.84) rotate(-53.99)"/><rect class="cls-2" x="26.61" y="31.52" width="3" height="1.75" transform="translate(-14.62 36.09) rotate(-53.99)"/></g></g></svg>