<svg xmlns="http://www.w3.org/2000/svg" viewBox="0 0 41.5 32.5"><defs><style>.cls-1{fill:#fff;stroke:#1d1d1b;stroke-miterlimit:10;opacity:0.8;}.cls-2{fill:#fcde05;}</style></defs><title>partially_sunnyAsset 9</title><g id="Layer_2" data-name="Layer 2"><g id="Layer_1-2" data-name="Layer 1"><path class="cls-1" d="M41,24.5A7.5,7.5,0,0,0,33.5,17l-.44,0A8.75,8.75,0,0,0,16,19.75c0,.11,0,.22,0,.34A6,6,0,0,0,17,32H34v0A7.48,7.48,0,0,0,41,24.5Z"/><rect class="cls-2" x="14" width="2" height="5"/><rect class="cls-2" x="1.5" y="12.5" width="2" height="5" transform="translate(-12.5 17.5) rotate(-90)"/><rect class="cls-2" x="5.16" y="3.66" width="2" height="5" transform="translate(-2.55 6.16) rotate(-45)"/><rect class="cls-2" x="5.16" y="21.34" width="2" height="5" transform="translate(-6.34 45.05) rotate(-135)"/><rect class="cls-2" x="22.84" y="3.66" width="2" height="5" transform="translate(36.34 27.37) rotate(-135)"/><path class="cls-2" d="M11,20.73a8,8,0,0,1,3.08-2.17A10.78,10.78,0,0,1,20,10.11a7,7,0,1,0-9,10.62Z"/></g></g></svg>