<svg xmlns="http://www.w3.org/2000/svg" viewBox="0 0 34 35.63"><defs><style>.cls-1,.cls-3{opacity:0.8;}.cls-2,.cls-3{fill:#fff;stroke:#1d1d1b;stroke-miterlimit:10;}</style></defs><title>stormyAsset 5</title><g id="Layer_2" data-name="Layer 2"><g id="Layer_1-2" data-name="Layer 1"><g class="cls-1"><polygon class="cls-2" points="13.5 12.5 20.5 12.5 19 18.5 22.5 18.5 13.75 33.5 14.5 23.5 11 23.5 13.5 12.5"/><path class="cls-3" d="M25.5,7.5a8.85,8.85,0,0,0-.89,0A9.75,9.75,0,0,0,5.5,10.25a9.53,9.53,0,0,0,.1,1.32A6,6,0,0,0,6.5,23.5H9l.1-.44L11.9,10.5H23.06l-1.5,6H26l-4.08,7h3.6a8,8,0,0,0,0-16Z"/></g></g></g></svg>